<svg width="720" height="720" viewBox="0 0 720 720" fill="none" xmlns="http://www.w3.org/2000/svg">
<g clip-path="url(#clip0_4_55)">
<circle cx="360" cy="360" r="360" fill="#454E57"/>
<path d="M336 61C336 49.9543 344.954 41 356 41H364C375.046 41 384 49.9543 384 61V165C384 176.046 375.046 185 364 185H356C344.954 185 336 176.046 336 165V61Z" fill="#FFC649"/>
<path d="M117.614 183.735C109.153 176.635 108.049 164.02 115.149 155.559L120.292 149.43C127.392 140.969 140.007 139.865 148.468 146.965L213.582 201.602C222.044 208.702 223.147 221.317 216.047 229.779L210.905 235.907C203.805 244.368 191.19 245.472 182.728 238.372L117.614 183.735Z" fill="#FFC649"/>
<path d="M594.029 131.57C601.645 125.18 612.998 126.173 619.388 133.789L625.174 140.683C631.564 148.299 630.57 159.652 622.955 166.042L524.322 248.805C516.707 255.195 505.353 254.202 498.963 246.586L493.178 239.692C486.788 232.077 487.781 220.723 495.397 214.333L594.029 131.57Z" fill="#4676A1"/>
<path d="M555 384.495C543.954 384.495 535 375.541 535 364.495V356.495C535 345.45 543.954 336.495 555 336.495H659C670.045 336.495 679 345.45 679 356.495V364.495C679 375.541 670.045 384.495 659 384.495H555Z" fill="#4676A1"/>
<path d="M336 555C336 543.954 344.954 535 356 535H364C375.046 535 384 543.954 384 555V659C384 670.046 375.046 679 364 679H356C344.954 679 336 670.046 336 659V555Z" fill="#4676A1"/>
<path d="M491.863 506.185C483.402 499.085 482.298 486.47 489.398 478.008L494.54 471.88C501.64 463.419 514.255 462.315 522.717 469.415L587.831 524.052C596.292 531.152 597.396 543.767 590.296 552.229L585.154 558.357C578.054 566.818 565.438 567.922 556.977 560.822L491.863 506.185Z" fill="#4676A1"/>
<path d="M191.422 466.551C199.037 460.161 210.391 461.154 216.781 468.769L222.566 475.664C228.956 483.279 227.962 494.633 220.347 501.023L121.714 583.785C114.099 590.175 102.745 589.182 96.3553 581.567L90.5702 574.672C84.1801 567.057 85.1734 555.703 92.7888 549.313L191.422 466.551Z" fill="#FFC649"/>
<path d="M61.0005 383.505C49.9548 383.505 41.0005 374.55 41.0005 363.505L41.0005 355.505C41.0005 344.459 49.9548 335.505 61.0005 335.505H165C176.046 335.505 185 344.459 185 355.505V363.505C185 374.55 176.046 383.505 165 383.505H61.0005Z" fill="#FFC649"/>
<circle cx="360" cy="360" r="150" fill="#FFC649"/>
<path d="M412.336 219.387C469.371 240.624 510 295.566 510 360C510 442.843 442.843 510 360 510C316.359 510 277.074 491.362 249.663 461.613C265.958 467.681 283.591 471 302 471C384.843 471 452 403.843 452 321C452 281.798 436.959 246.11 412.336 219.387Z" fill="#4676A1"/>
<path d="M387.668 400.936H331.416L320.636 437H297.508L331.808 325.868C334.029 318.551 336.316 312.867 338.668 308.816C341.151 304.765 344.025 301.891 347.292 300.192C350.559 298.363 354.675 297.448 359.64 297.448C364.475 297.448 368.525 298.363 371.792 300.192C375.059 301.891 377.933 304.765 380.416 308.816C382.899 312.867 385.251 318.551 387.472 325.868L421.576 437H398.448L387.668 400.936ZM382.572 383.688L365.52 326.26C364.736 323.647 363.887 321.752 362.972 320.576C362.188 319.4 361.077 318.812 359.64 318.812C358.203 318.812 357.027 319.4 356.112 320.576C355.197 321.752 354.348 323.647 353.564 326.26L336.512 383.688H382.572Z" fill="#4676A1"/>
</g>
<defs>
<clipPath id="clip0_4_55">
<rect width="720" height="720" fill="white"/>
</clipPath>
</defs>
</svg>
